<svg xmlns="http://www.w3.org/2000/svg" width="24" height="24" viewBox="0 0 24 24">
  <g id="ic-door" transform="translate(-396 -1675)">
    <rect id="Rect치ngulo_394" data-name="Rect치ngulo 394" width="24" height="24" transform="translate(396 1675)" fill="none"/>
    <path id="Sustracci칩n_1" data-name="Sustracci칩n 1" d="M-614.014,234.431a2.166,2.166,0,0,1-1.152-.323,2.622,2.622,0,0,1-1.077-1.625c-.581-2.179-1.55-5.493-1.659-5.863a2.952,2.952,0,0,1,.669-2.74c1.116-1.15,4.8-5.274,4.957-5.449a6.977,6.977,0,0,1,4.947-2.43h.013c.889,0,2.33,0,4.282,0,3.36,0,7.058,0,7.058,0v16.483a2.17,2.17,0,0,1-.483,1.451,1.638,1.638,0,0,1-1.249.476h-.036c-.557-.008-2.233-.012-4.98-.012-4.645,0-10.933.011-10.994.012A1.756,1.756,0,0,1-614.014,234.431Zm12.539-7.745v1h3v-1Zm-5.878-8.823a5.265,5.265,0,0,0-3.675,1.887c-1.846,1.978-4.071,4.493-4.092,4.517h17.3v-6.4h-9.537Z" transform="translate(1014.998 1461.814)" fill="#000000"/>
  </g>
</svg>
