<svg xmlns="http://www.w3.org/2000/svg" width="24" height="24" viewBox="0 0 24 24">
  <g id="ic-pax" transform="translate(153 -6032)">
    <rect id="Rectángulo_364" data-name="Rectángulo 364" width="24" height="24" transform="translate(-153 6032)" fill="none"/>
    <path id="car-seat" d="M40.605.558A1.76,1.76,0,0,0,39.3,0H37.916a2.29,2.29,0,0,0-2.174,1.825l-.087.5a1.607,1.607,0,0,0,.333,1.336,1.607,1.607,0,0,0,1.258.559h1.791a1.939,1.939,0,0,0,.712-.138l-.19,1.626a1.533,1.533,0,0,0-.6-.118H36.92A2.048,2.048,0,0,0,35,7.142L33.2,15.662l-8.526-.613a1.211,1.211,0,0,0-1.084.43,1.234,1.234,0,0,0-.184,1.085l.991,3.9A2.142,2.142,0,0,0,26.365,22H37.26a1.824,1.824,0,0,0,1.772-1.594l1.4-13.185A1.588,1.588,0,0,0,40.437,7l.479-4.089a1.926,1.926,0,0,0,.124-.557l.032-.455A1.759,1.759,0,0,0,40.605.558Z" transform="translate(-173.353 6033)" fill="#000000"/>
  </g>
</svg>
